<?xml version="1.0" standalone="no"?>
<!DOCTYPE svg PUBLIC "-//W3C//DTD SVG 20010904//EN"
 "http://www.w3.org/TR/2001/REC-SVG-20010904/DTD/svg10.dtd">
<svg version="1.0" xmlns="http://www.w3.org/2000/svg"
 width="192.000000pt" height="192.000000pt" viewBox="0 0 192.000000 192.000000"
 preserveAspectRatio="xMidYMid meet">
<metadata>
Created by potrace 1.11, written by Peter Selinger 2001-2013
</metadata>
<g transform="translate(0.000000,192.000000) scale(0.100000,-0.100000)"
fill="#000000" stroke="none">
<path d="M120 1839 c-87 -19 -117 -117 -63 -208 15 -25 26 -54 25 -63 -2 -13
4 -18 21 -18 26 0 87 -59 87 -83 0 -23 -26 -49 -45 -46 -18 4 -29 18 -39 52
-6 19 -50 23 -75 8 -22 -14 2 -84 40 -115 44 -38 125 -37 163 1 14 14 29 37
32 50 12 46 -3 112 -32 150 -16 21 -29 45 -29 53 0 9 -11 16 -26 18 -53 6 -81
113 -32 120 17 2 26 -4 35 -23 11 -24 16 -26 46 -21 43 7 46 9 38 40 -15 62
-79 99 -146 85z"/>
<path d="M1077 1820 c-42 -33 -57 -71 -57 -145 0 -49 -4 -67 -15 -71 -8 -4
-15 -12 -15 -19 0 -7 7 -15 15 -19 11 -4 15 -22 15 -68 0 -81 22 -127 73 -152
48 -23 98 -11 141 33 25 26 30 40 34 106 3 52 9 78 18 82 19 7 18 29 -1 37
-11 4 -15 21 -15 58 0 115 -36 168 -117 175 -39 4 -53 1 -76 -17z m93 -89 c5
-11 10 -78 10 -150 0 -104 -3 -133 -16 -145 -12 -12 -20 -13 -35 -6 -17 10
-19 23 -19 159 0 81 3 151 7 154 13 14 43 7 53 -12z"/>
<path d="M354 1816 c-3 -8 -4 -25 -2 -38 2 -18 11 -24 38 -28 l35 -5 3 -67 c3
-60 1 -68 -19 -79 l-23 -12 22 -17 c19 -16 22 -29 24 -121 l3 -104 40 0 40 0
3 108 c2 84 6 109 17 114 20 7 19 29 0 37 -13 5 -15 20 -13 73 l3 68 33 3 c30
3 32 6 32 43 l0 39 -115 0 c-91 0 -117 -3 -121 -14z"/>
<path d="M688 1824 c-5 -4 -8 -52 -8 -107 0 -80 -3 -104 -17 -119 -15 -17 -15
-19 0 -31 13 -9 17 -33 19 -117 l3 -105 40 0 40 0 5 85 c4 66 8 85 20 85 14 0
20 -16 50 -132 10 -41 12 -43 50 -43 21 0 41 4 44 9 3 4 -6 49 -19 100 -23 84
-24 95 -10 121 10 19 15 58 15 114 0 75 -3 88 -24 113 -23 26 -30 28 -113 31
-48 2 -91 0 -95 -4z m127 -84 c24 -9 26 -13 23 -66 -3 -60 -20 -83 -52 -71
-23 9 -23 147 0 147 1 0 14 -4 29 -10z"/>
<path d="M1380 1820 c0 -6 16 -57 36 -113 27 -79 33 -106 25 -119 -9 -14 -7
-20 9 -30 17 -11 20 -24 20 -93 0 -116 5 -127 49 -123 l36 3 3 99 c2 87 5 102
23 114 14 10 17 17 10 26 -8 9 -1 43 24 116 19 57 35 110 35 118 0 9 -12 12
-42 10 -42 -3 -43 -4 -63 -60 -11 -31 -23 -59 -27 -63 -3 -3 -16 23 -28 59
l-22 66 -44 0 c-24 0 -44 -5 -44 -10z"/>
<path d="M1670 1375 c0 -32 2 -35 30 -35 28 0 30 3 30 35 0 32 -2 35 -30 35
-28 0 -30 -3 -30 -35z"/>
<path d="M93 1230 c-31 -12 -63 -68 -63 -107 0 -40 16 -82 41 -109 11 -12 19
-30 17 -40 -2 -14 4 -20 24 -22 52 -6 98 -88 66 -120 -22 -22 -48 -13 -69 23
-23 38 -26 39 -63 25 -22 -8 -24 -13 -17 -38 21 -71 59 -102 129 -102 106 0
145 124 73 227 -17 24 -31 50 -31 58 0 9 -10 15 -25 15 -48 0 -76 83 -40 118
15 16 18 15 44 -16 23 -27 33 -32 55 -26 14 3 29 10 31 15 9 14 -22 75 -46 93
-25 17 -90 20 -126 6z"/>
<path d="M425 1218 c-2 -7 -12 -56 -20 -108 -12 -71 -21 -97 -36 -108 -18 -13
-19 -16 -5 -31 14 -16 14 -26 1 -102 -23 -128 -22 -131 22 -127 37 3 38 5 48
53 10 46 13 50 43 53 27 3 32 0 37 -25 15 -72 19 -78 58 -81 44 -4 45 -1 21
132 -14 84 -14 90 2 99 16 9 15 11 -5 26 -16 12 -25 37 -37 106 -22 132 -18
125 -75 125 -31 0 -51 -5 -54 -12z m69 -224 c13 -34 7 -64 -14 -64 -14 0 -20
7 -20 24 0 30 9 56 20 56 4 0 11 -7 14 -16z"/>
<path d="M696 1214 c-3 -9 -6 -57 -6 -107 0 -70 -4 -95 -16 -109 -16 -16 -16
-18 0 -24 13 -5 16 -23 16 -104 0 -54 3 -105 6 -114 5 -13 24 -16 105 -16 l99
0 0 40 0 40 -54 0 c-30 0 -58 5 -61 11 -4 6 -9 37 -12 69 -5 53 -4 59 18 70
l23 13 -23 18 c-20 17 -22 26 -21 111 1 51 1 99 1 106 -1 18 -68 15 -75 -4z"/>
<path d="M990 1121 c0 -101 -2 -110 -22 -123 l-22 -15 22 -12 c21 -11 22 -18
22 -121 l0 -110 105 0 105 0 0 40 0 39 -62 3 -63 3 -3 56 -3 57 46 6 c43 7 45
9 45 40 0 35 -15 46 -67 46 -21 0 -23 5 -23 60 l0 59 63 3 62 3 3 38 3 37
-105 0 -106 0 0 -109z"/>
</g>
</svg>
